<svg xmlns="http://www.w3.org/2000/svg" viewBox="0 -0.5 16 16" shape-rendering="crispEdges">
<metadata>Made with Pixels to Svg https://codepen.io/shshaw/pen/XbxvNj</metadata>
<path stroke="#0b0b0b" d="M2 0h13M1 1h1M13 1h1M15 1h1M2 2h1M5 2h7M14 2h1M3 3h1M13 3h1M4 4h1M14 4h1M3 5h1M6 5h5M13 5h1M2 6h1M12 6h1M1 7h1M4 7h5M11 7h1M0 8h1M10 8h1M0 9h1M2 9h6M10 9h1M0 10h1M10 10h1M0 11h1M3 11h6M11 11h1M1 12h1M12 12h1M2 13h1M5 13h6M13 13h1M3 14h1M14 14h1M4 15h12" />
<path stroke="#f7d176" d="M2 1h11M3 2h2M12 2h2M4 3h9M5 4h9M4 5h2M11 5h2M3 6h9M2 7h2M9 7h2M1 8h9M1 9h1M8 9h2M1 10h9M1 11h2M9 11h2M2 12h10M3 13h2M11 13h2M4 14h10" />
<path stroke="#ff575e" d="M14 1h1" />
</svg>