<svg xmlns="http://www.w3.org/2000/svg" viewBox="0 -0.5 16 16" shape-rendering="crispEdges">
<metadata>Made with Pixels to Svg https://codepen.io/shshaw/pen/XbxvNj</metadata>
<path stroke="#0b0b0b" d="M1 5h14M0 6h1M15 6h1M0 7h1M15 7h1M0 8h1M15 8h1M0 9h1M15 9h1M0 10h1M15 10h1M0 11h1M15 11h1M1 12h14M2 13h2M12 13h2" />
<path stroke="#5273f0" d="M1 6h14M1 7h1M4 7h1M7 7h1M9 7h1M12 7h1M1 8h1M4 8h1M7 8h1M9 8h1M12 8h1M2 9h3M7 9h3M12 9h3M2 10h3M7 10h3M12 10h2M1 11h4M7 11h3M12 11h2" />
<path stroke="#a4e8ff" d="M2 7h2M8 7h1M13 7h2M2 8h2M8 8h1M13 8h2" />
<path stroke="#3459e4" d="M5 7h2M10 7h2M5 8h2M10 8h2M5 9h2M10 9h2M5 10h2M10 10h2M5 11h2M10 11h2" />
<path stroke="#ff7379" d="M1 9h1" />
<path stroke="#f2f448" d="M1 10h1" />
<path stroke="#3e3e3f" d="M14 10h1M14 11h1" />
</svg>