<svg xmlns="http://www.w3.org/2000/svg" viewBox="0 -0.5 16 16" shape-rendering="crispEdges">
<metadata>Made with Pixels to Svg https://codepen.io/shshaw/pen/XbxvNj</metadata>
<path stroke="#0b0b0b" d="M0 0h16M0 1h1M3 1h1M15 1h1M0 2h1M3 2h1M15 2h1M0 3h16M0 4h1M3 4h1M15 4h1M0 5h1M3 5h1M15 5h1M0 6h16M0 7h1M3 7h1M15 7h1M0 8h1M3 8h1M15 8h1M0 9h16M0 10h1M3 10h1M15 10h1M0 11h1M3 11h1M15 11h1M0 12h16M0 13h1M3 13h1M15 13h1M0 14h1M3 14h1M15 14h1M0 15h16" />
<path stroke="#edcf00" d="M1 1h2M1 2h2M4 7h11M4 8h11" />
<path stroke="#00c700" d="M4 1h11M4 2h11M1 10h2M1 11h2" />
<path stroke="#0084f3" d="M1 4h2M1 5h2M4 10h11M4 11h11" />
<path stroke="#00b490" d="M4 4h11M4 5h11M1 13h2M1 14h2" />
<path stroke="#f60010" d="M1 7h2M1 8h2M4 13h11M4 14h11" />
</svg>