<svg xmlns="http://www.w3.org/2000/svg" viewBox="0 -0.5 16 16" shape-rendering="crispEdges">
<metadata>Made with Pixels to Svg https://codepen.io/shshaw/pen/XbxvNj</metadata>
<path stroke="#646566" d="M0 3h4M0 4h1M3 4h1M0 5h1M0 6h4" />
<path stroke="#0b0b0b" d="M2 5h13M15 6h1M2 7h1M15 7h1M2 8h1M15 8h1M2 9h1M15 9h1M2 10h1M15 10h1M2 11h1M15 11h1M3 12h12" />
<path stroke="#fed33f" d="M4 6h11M3 7h1M14 7h1M3 8h12M3 9h1M6 9h1M8 9h1M12 9h1M14 9h1M3 10h1M5 10h1M11 10h1M13 10h2M3 11h12" />
<path stroke="#f82000" d="M4 7h1M4 9h1M4 10h1" />
<path stroke="#ff8500" d="M5 7h1M5 9h1" />
<path stroke="#e2bc00" d="M6 7h1M6 10h1" />
<path stroke="#00c700" d="M7 7h1M7 9h1M7 10h1" />
<path stroke="#0544d7" d="M8 7h2M9 9h1M8 10h2" />
<path stroke="#000d95" d="M10 7h2M10 9h2M10 10h1" />
<path stroke="#a000c5" d="M12 7h2M13 9h1M12 10h1" />
</svg>