<svg xmlns="http://www.w3.org/2000/svg" viewBox="0 -0.5 32 32" shape-rendering="crispEdges">
<metadata>Made with Pixels to Svg https://codepen.io/shshaw/pen/XbxvNj</metadata>
<path stroke="#0b0b0b" d="M8 0h24M7 1h2M31 1h1M6 2h1M8 2h1M31 2h1M5 3h1M8 3h1M31 3h1M4 4h1M8 4h1M31 4h1M3 5h1M8 5h1M31 5h1M2 6h1M8 6h1M31 6h1M1 7h1M8 7h1M31 7h1M0 8h9M31 8h1M0 9h1M31 9h1M0 10h1M31 10h1M0 11h1M31 11h1M0 12h1M31 12h1M0 13h1M3 13h8M13 13h6M22 13h2M28 13h2M31 13h1M0 14h1M2 14h9M13 14h7M22 14h2M28 14h2M31 14h1M0 15h1M2 15h2M13 15h2M18 15h2M22 15h2M28 15h2M31 15h1M0 16h1M2 16h2M13 16h2M18 16h2M22 16h2M28 16h2M31 16h1M0 17h1M2 17h2M13 17h2M18 17h2M22 17h2M28 17h2M31 17h1M0 18h1M2 18h2M13 18h7M22 18h8M31 18h1M0 19h1M2 19h2M13 19h6M23 19h7M31 19h1M0 20h1M2 20h2M13 20h2M28 20h2M31 20h1M0 21h1M2 21h2M13 21h2M28 21h2M31 21h1M0 22h1M2 22h2M13 22h2M22 22h2M28 22h2M31 22h1M0 23h1M2 23h9M13 23h2M22 23h8M31 23h1M0 24h1M3 24h8M13 24h2M23 24h6M31 24h1M0 25h1M31 25h1M0 26h1M31 26h1M0 27h1M31 27h1M0 28h1M31 28h1M0 29h1M31 29h1M0 30h1M31 30h1M0 31h32" />
<path stroke="#ffffff" d="M9 1h22M7 2h1M9 2h22M6 3h2M9 3h22M5 4h3M9 4h22M4 5h4M9 5h22M3 6h5M9 6h22M2 7h6M9 7h22M9 8h22M1 9h30M1 10h30M1 11h30M1 12h30M1 13h2M11 13h2M19 13h3M24 13h4M30 13h1M1 14h1M11 14h2M20 14h2M24 14h4M30 14h1M1 15h1M4 15h9M15 15h3M20 15h2M24 15h4M30 15h1M1 16h1M4 16h9M15 16h3M20 16h2M24 16h4M30 16h1M1 17h1M4 17h9M15 17h3M20 17h2M24 17h4M30 17h1M1 18h1M4 18h9M20 18h2M30 18h1M1 19h1M4 19h9M19 19h4M30 19h1M1 20h1M4 20h9M15 20h13M30 20h1M1 21h1M4 21h9M15 21h13M30 21h1M1 22h1M4 22h9M15 22h7M24 22h4M30 22h1M1 23h1M11 23h2M15 23h7M30 23h1M1 24h1M11 24h2M15 24h8M29 24h2M1 25h30M1 26h30M1 27h30M1 28h30M1 29h30M1 30h30" />
<path stroke="#f9f6f7" d="M2 24h1" />
</svg>