<svg xmlns="http://www.w3.org/2000/svg" viewBox="0 -0.5 16 16" shape-rendering="crispEdges">
<metadata>Made with Pixels to Svg https://codepen.io/shshaw/pen/XbxvNj</metadata>
<path stroke="#6b87c8" d="M2 1h12M1 2h14M1 3h2M7 3h2M13 3h2M1 4h2M5 4h6M13 4h2M1 5h2M4 5h2M10 5h2M13 5h2M1 6h2M13 6h2M1 7h1M5 7h1M10 7h1M14 7h1M1 8h1M4 8h3M9 8h3M14 8h1M1 9h1M5 9h1M10 9h1M14 9h1M1 10h1M14 10h1M1 11h1M5 11h1M10 11h1M14 11h1M1 12h2M7 12h2M13 12h2M1 13h14M2 14h12" />
<path stroke="#7992cd" d="M3 3h1M12 3h1" />
<path stroke="#98abd8" d="M4 3h2M10 3h2M3 4h1M12 4h1" />
<path stroke="#8199d0" d="M6 3h1M9 3h1M6 12h1M9 12h1" />
<path stroke="#fafafa" d="M4 4h1M11 4h1M3 5h1M6 5h4M12 5h1M4 6h8M2 7h3M7 7h2M11 7h3M2 8h2M7 8h2M12 8h2M2 9h2M7 9h2M12 9h2M2 10h12M2 11h3M7 11h2M11 11h3M4 12h2M10 12h2" />
<path stroke="#e3e8f2" d="M3 6h1M12 6h1" />
<path stroke="#b3c0e1" d="M6 7h1M9 7h1M4 9h1M11 9h1M6 11h1M9 11h1" />
<path stroke="#8fa4d5" d="M6 9h1M9 9h1" />
<path stroke="#b7c3e2" d="M3 12h1M12 12h1" />
</svg>