<svg xmlns="http://www.w3.org/2000/svg" viewBox="0 -0.5 16 16" shape-rendering="crispEdges">
<metadata>Made with Pixels to Svg https://codepen.io/shshaw/pen/XbxvNj</metadata>
<path stroke="#00c700" d="M0 0h16M0 1h16M0 2h16M0 3h3M5 3h6M13 3h3M0 4h3M6 4h5M13 4h3M0 5h3M7 5h4M13 5h3M0 6h3M8 6h3M13 6h3M0 7h3M5 7h1M9 7h2M13 7h3M0 8h3M5 8h2M10 8h1M13 8h3M0 9h3M5 9h3M13 9h3M0 10h3M5 10h4M13 10h3M0 11h3M5 11h5M13 11h3M0 12h3M5 12h6M13 12h3M0 13h16M0 14h16M0 15h16" />
<path stroke="#ffffff" d="M3 3h2M11 3h2M3 4h3M11 4h2M3 5h4M11 5h2M3 6h5M11 6h2M3 7h2M6 7h3M11 7h2M3 8h2M7 8h3M11 8h2M3 9h2M8 9h5M3 10h2M9 10h4M3 11h2M10 11h3M3 12h2M11 12h2" />
</svg>