<svg xmlns="http://www.w3.org/2000/svg" viewBox="0 -0.5 16 16" shape-rendering="crispEdges">
<metadata>Made with Pixels to Svg https://codepen.io/shshaw/pen/XbxvNj</metadata>
<path stroke="#ef4500" d="M0 0h4M5 0h2M0 1h4M0 2h3M5 2h1M0 3h2M6 3h1M4 4h1M0 5h1M2 5h1M5 5h1M0 6h1M3 6h1" />
<path stroke="#5ee6fc" d="M4 0h1M7 0h9M4 1h12M3 2h2M6 2h10M2 3h4M7 3h8M0 4h4M5 4h9M1 5h1M3 5h2M6 5h7M1 6h2M4 6h8M0 7h11M0 8h11M0 9h10M0 10h9M0 11h8M0 12h7M0 13h4M0 14h1" />
<path stroke="#ffffff" d="M15 3h1M14 4h2M13 5h3M13 6h3M14 7h2" />
<path stroke="#00c800" d="M12 6h1M11 7h3M11 8h5M10 9h6M9 10h7M8 11h8M7 12h9M4 13h12M1 14h15M0 15h16" />
</svg>