<svg xmlns="http://www.w3.org/2000/svg" viewBox="0 -0.5 16 16" shape-rendering="crispEdges">
<metadata>Made with Pixels to Svg https://codepen.io/shshaw/pen/XbxvNj</metadata>
<path stroke="#0b0b0b" d="M0 0h13M0 1h1M13 1h1M0 2h1M13 2h1M0 3h1M5 3h5M13 3h1M0 4h1M5 4h1M9 4h1M13 4h1M0 5h1M5 5h1M9 5h1M13 5h1M0 6h1M5 6h1M9 6h1M13 6h1M0 7h1M5 7h4M13 7h1M0 8h1M13 8h1M0 9h1M13 9h1M0 10h1M5 10h8M0 11h1M5 11h1M0 12h1M5 12h1M0 13h1M5 13h1M0 14h1M5 14h1M0 15h6" />
<path stroke="#009bf9" d="M1 1h3M1 2h3M1 3h4M1 4h3M1 5h3" />
<path stroke="rgba(0,151,249,0.984313725490196)" d="M4 1h1" />
<path stroke="rgba(0,144,247,0.9607843137254902)" d="M5 1h1" />
<path stroke="rgba(0,136,245,0.9098039215686274)" d="M6 1h1" />
<path stroke="rgba(0,137,245,0.8862745098039215)" d="M7 1h1" />
<path stroke="rgba(0,134,244,0.7490196078431373)" d="M8 1h1" />
<path stroke="rgba(0,124,241,0.6509803921568628)" d="M9 1h1" />
<path stroke="rgba(0,101,232,0.596078431372549)" d="M10 1h1" />
<path stroke="rgba(32,37,200,0.596078431372549)" d="M11 1h1" />
<path stroke="rgba(0,25,193,0.803921568627451)" d="M12 1h1" />
<path stroke="rgba(0,154,249,0.9882352941176471)" d="M4 2h1" />
<path stroke="rgba(0,146,247,0.9529411764705882)" d="M5 2h1" />
<path stroke="rgba(0,135,245,0.9215686274509803)" d="M6 2h1" />
<path stroke="rgba(0,126,242,0.8745098039215686)" d="M7 2h1" />
<path stroke="rgba(1,115,237,0.8)" d="M8 2h1" />
<path stroke="rgba(0,123,241,0.7058823529411765)" d="M9 2h1" />
<path stroke="rgba(3,88,226,0.6235294117647059)" d="M10 2h1" />
<path stroke="rgba(43,67,215,0.6)" d="M11 2h1" />
<path stroke="rgba(29,32,197,0.6666666666666666)" d="M12 2h1" />
<path stroke="rgba(27,88,227,0.6705882352941176)" d="M10 3h1" />
<path stroke="rgba(36,79,221,0.6431372549019608)" d="M11 3h1" />
<path stroke="rgba(60,64,216,0.6862745098039216)" d="M12 3h1" />
<path stroke="rgba(0,155,249,0.9921568627450981)" d="M4 4h1" />
<path stroke="rgba(61,57,212,0.7490196078431373)" d="M10 4h1" />
<path stroke="rgba(61,78,222,0.7529411764705882)" d="M11 4h1" />
<path stroke="rgba(86,64,217,0.8)" d="M12 4h1" />
<path stroke="rgba(0,156,250,0.9921568627450981)" d="M4 5h1" />
<path stroke="rgba(97,56,214,0.8392156862745098)" d="M10 5h1" />
<path stroke="rgba(93,54,214,0.8196078431372549)" d="M11 5h1" />
<path stroke="rgba(98,51,212,0.8901960784313725)" d="M12 5h1" />
<path stroke="rgba(0,156,250,0.996078431372549)" d="M1 6h1" />
<path stroke="#009af9" d="M2 6h1" />
<path stroke="rgba(0,153,249,0.984313725490196)" d="M3 6h1" />
<path stroke="rgba(0,150,248,0.9411764705882353)" d="M4 6h1" />
<path stroke="rgba(103,45,210,0.8352941176470589)" d="M10 6h1" />
<path stroke="rgba(103,46,210,0.8431372549019608)" d="M11 6h1" />
<path stroke="rgba(101,47,210,0.8588235294117647)" d="M12 6h1" />
<path stroke="rgba(0,154,249,0.9450980392156862)" d="M1 7h1" />
<path stroke="rgba(0,143,245,0.9450980392156862)" d="M2 7h1" />
<path stroke="rgba(0,125,241,0.8352941176470589)" d="M3 7h1" />
<path stroke="rgba(29,103,234,0.8274509803921568)" d="M4 7h1" />
<path stroke="rgba(11,11,11,0.9803921568627451)" d="M9 7h1" />
<path stroke="rgba(101,47,209,0.8784313725490196)" d="M10 7h1" />
<path stroke="rgba(103,46,211,0.8549019607843137)" d="M11 7h1" />
<path stroke="rgba(99,42,207,0.8)" d="M12 7h1" />
<path stroke="rgba(0,151,249,0.9058823529411765)" d="M1 8h1" />
<path stroke="rgba(0,140,246,0.8666666666666667)" d="M2 8h1" />
<path stroke="rgba(0,115,237,0.6784313725490196)" d="M3 8h1" />
<path stroke="rgba(50,83,225,0.6588235294117647)" d="M4 8h1" />
<path stroke="rgba(74,60,212,0.7529411764705882)" d="M5 8h1" />
<path stroke="rgba(74,44,205,0.8274509803921568)" d="M6 8h1" />
<path stroke="rgba(71,38,202,0.8509803921568627)" d="M7 8h1" />
<path stroke="rgba(98,45,209,0.8509803921568627)" d="M8 8h1" />
<path stroke="rgba(99,45,209,0.8901960784313725)" d="M9 8h1" />
<path stroke="rgba(100,45,209,0.9058823529411765)" d="M10 8h1" />
<path stroke="rgba(100,45,209,0.9137254901960784)" d="M11 8h1" />
<path stroke="rgba(100,45,209,0.8509803921568627)" d="M12 8h1" />
<path stroke="rgba(0,153,249,0.8588235294117647)" d="M1 9h1" />
<path stroke="rgba(0,137,245,0.8705882352941177)" d="M2 9h1" />
<path stroke="rgba(0,119,239,0.6901960784313725)" d="M3 9h1" />
<path stroke="rgba(33,79,222,0.6039215686274509)" d="M4 9h1" />
<path stroke="rgba(44,49,205,0.596078431372549)" d="M5 9h1" />
<path stroke="rgba(40,33,198,0.6705882352941176)" d="M6 9h1" />
<path stroke="rgba(93,50,212,0.7607843137254902)" d="M7 9h1" />
<path stroke="rgba(105,45,210,0.8352941176470589)" d="M8 9h1" />
<path stroke="rgba(97,42,208,0.8901960784313725)" d="M9 9h1" />
<path stroke="rgba(100,45,209,0.8980392156862745)" d="M10 9h1" />
<path stroke="rgba(101,46,210,0.8941176470588236)" d="M11 9h1" />
<path stroke="rgba(100,46,210,0.9254901960784314)" d="M12 9h1" />
<path stroke="rgba(0,141,247,0.8274509803921568)" d="M1 10h1" />
<path stroke="rgba(0,106,234,0.8470588235294118)" d="M2 10h1" />
<path stroke="rgba(46,65,214,0.611764705882353)" d="M3 10h1" />
<path stroke="rgba(27,34,197,0.5843137254901961)" d="M4 10h1" />
<path stroke="rgba(14,94,229,0.8705882352941177)" d="M1 11h1" />
<path stroke="rgba(60,59,211,0.8196078431372549)" d="M2 11h1" />
<path stroke="rgba(49,41,201,0.615686274509804)" d="M3 11h1" />
<path stroke="rgba(0,24,193,0.592156862745098)" d="M4 11h1" />
<path stroke="rgba(53,38,201,0.8901960784313725)" d="M1 12h1" />
<path stroke="rgba(61,40,203,0.8901960784313725)" d="M2 12h1" />
<path stroke="rgba(51,34,198,0.803921568627451)" d="M3 12h1" />
<path stroke="rgba(93,53,212,0.6549019607843137)" d="M4 12h1" />
<path stroke="rgba(47,34,198,0.8941176470588236)" d="M1 13h1" />
<path stroke="rgba(53,34,200,0.9372549019607843)" d="M2 13h1" />
<path stroke="rgba(93,55,214,0.9372549019607843)" d="M3 13h1" />
<path stroke="rgba(98,47,210,0.8588235294117647)" d="M4 13h1" />
<path stroke="rgba(95,59,216,0.8509803921568627)" d="M1 14h1" />
<path stroke="rgba(98,53,214,0.8980392156862745)" d="M2 14h1" />
<path stroke="rgba(99,45,210,0.9450980392156862)" d="M3 14h1" />
<path stroke="rgba(100,45,209,0.9686274509803922)" d="M4 14h1" />
</svg>