<svg xmlns="http://www.w3.org/2000/svg" viewBox="0 -0.5 16 16" shape-rendering="crispEdges">
<metadata>Made with Pixels to Svg https://codepen.io/shshaw/pen/XbxvNj</metadata>
<path stroke="#0b0b0b" d="M0 0h16M0 1h1M15 1h1M0 2h1M15 2h1M0 3h1M15 3h1M0 4h1M15 4h1M0 5h1M15 5h1M0 6h1M15 6h1M0 7h1M15 7h1M0 8h1M4 8h1M8 8h1M12 8h1M15 8h1M0 9h4M5 9h3M9 9h3M13 9h3M1 10h1M14 10h1M1 11h1M14 11h1M1 12h1M14 12h1M1 13h1M14 13h1M1 14h1M14 14h1M1 15h14" />
<path stroke="#fc182a" d="M1 1h4M9 1h4M1 2h4M9 2h4M1 3h4M9 3h4M1 4h4M9 4h4M1 5h4M9 5h4M1 6h4M9 6h4M1 7h4M9 7h4M1 8h3M9 8h3" />
<path stroke="#ffffff" d="M5 1h4M13 1h2M5 2h4M13 2h2M5 3h4M13 3h2M5 4h4M13 4h2M5 5h4M13 5h2M5 6h4M13 6h2M5 7h4M13 7h2M5 8h3M13 8h2" />
<path stroke="#fff49f" d="M4 9h1M8 9h1M12 9h1M2 10h12M2 11h5M10 11h4M2 12h5M10 12h4M2 13h5M10 13h4M2 14h5M10 14h4" />
<path stroke="#d9c226" d="M7 11h3M7 12h3M7 13h3M7 14h3" />
</svg>