<svg xmlns="http://www.w3.org/2000/svg" viewBox="0 -0.5 16 16" shape-rendering="crispEdges">
<metadata>Made with Pixels to Svg https://codepen.io/shshaw/pen/XbxvNj</metadata>
<path stroke="#0b0b0b" d="M3 3h3M2 4h1M6 4h1M2 5h1M6 5h7M2 6h1M13 6h1M3 7h1M13 7h1M2 8h1M13 8h1M1 9h1M13 9h1M1 10h1M13 10h1M1 11h1M1 12h1M12 12h1M2 13h1M11 13h1M3 14h8" />
<path stroke="#009700" d="M3 4h3M3 5h3M3 6h3" />
<path stroke="#34c800" d="M6 6h3M11 6h2M5 7h2M11 7h1M3 8h1M5 8h1M10 8h1M2 9h3M6 9h2M9 9h1" />
<path stroke="#8e8f90" d="M9 6h2M7 7h1M10 7h1M6 8h1M9 8h1M8 9h1" />
<path stroke="#8e5a00" d="M4 7h1M4 8h1" />
<path stroke="#5fcaff" d="M8 7h2M7 8h2" />
<path stroke="#a77100" d="M12 7h1M11 8h2M10 9h2M2 10h9" />
<path stroke="rgba(52,200,0,0.9921568627450981)" d="M5 9h1" />
<path stroke="#545455" d="M12 9h1M11 10h2M2 11h11M2 12h10M3 13h8" />
<path stroke="rgba(11,11,11,0.9333333333333333)" d="M13 11h1" />
</svg>