<svg xmlns="http://www.w3.org/2000/svg" viewBox="0 -0.5 42 18" shape-rendering="crispEdges">
<metadata>Made with Pixels to Svg https://codepen.io/shshaw/pen/XbxvNj</metadata>
<path stroke="#00d4f2" d="M0 0h6M14 0h7M27 0h2M33 0h5M0 1h7M13 1h15M34 1h4M0 2h15M19 2h8M35 2h4M0 3h1M5 3h9M20 3h7M35 3h7M6 4h7M21 4h6M35 4h5M8 5h5M21 5h7M34 5h5M9 6h4M21 6h17M10 7h4M20 7h5M29 7h9M10 8h14M30 8h8M0 9h2M10 9h13M31 9h6M0 10h3M11 10h12M31 10h6M0 11h6M12 11h11M31 11h6" />
<path stroke="#ffffff" d="M6 0h8M21 0h6M29 0h4M38 0h4M7 1h6M28 1h6M38 1h4M15 2h4M27 2h8M39 2h3M1 3h4M14 3h6M27 3h8M0 4h6M13 4h8M27 4h8M40 4h2M0 5h4M13 5h8M28 5h6M39 5h3M0 6h3M13 6h8M38 6h4M0 7h2M14 7h6M25 7h4M38 7h1M0 8h2M24 8h6M23 9h8M9 10h2M23 10h8M6 11h6M27 11h4" />
<path stroke="#91ddae" d="M4 5h3M3 6h1M2 7h1M39 7h3M2 8h1M38 8h1M7 10h2M23 11h4" />
<path stroke="#5edeae" d="M7 5h1M8 6h1M9 7h1M9 8h1M2 9h1M9 9h1M37 9h1M3 10h4M37 10h1M37 11h1" />
<path stroke="#19d97e" d="M4 6h3M3 7h1M5 7h1M3 8h1M5 8h1M39 8h3M40 9h1" />
<path stroke="#00ce6e" d="M7 6h1M7 7h2M7 8h2M3 9h6M38 9h1M38 10h1M40 10h1M38 11h4" />
<path stroke="#0b0b0b" d="M4 7h1M6 7h1M4 8h1M6 8h1M39 9h1M41 9h1M39 10h1M41 10h1M23 13h1M25 13h1M14 14h1M16 14h1M23 14h1M25 14h1M32 14h1M34 14h1M14 15h1M16 15h1M32 15h1M34 15h1" />
<path stroke="#e66e00" d="M0 12h14M18 12h4M28 12h4M36 12h2M0 13h13M19 13h2M29 13h2M37 13h5M0 14h12M20 14h1M29 14h1M38 14h4M0 15h12M20 15h1M29 15h1M38 15h4M0 16h12M20 16h2M28 16h2M38 16h4M0 17h13M19 17h12M37 17h5" />
<path stroke="#91c98b" d="M14 12h4M22 12h1M27 12h1M32 12h4M38 12h4M13 13h1M18 13h1M21 13h1M28 13h1M31 13h1M36 13h1M12 14h1M19 14h1M21 14h1M28 14h1M30 14h1M37 14h1M12 15h1M19 15h1M21 15h1M28 15h1M30 15h1M37 15h1M12 16h1M19 16h1M22 16h6M30 16h1M37 16h1M13 17h6M31 17h6" />
<path stroke="#34d967" d="M23 12h4M14 13h4M22 13h1M24 13h1M26 13h2M32 13h4M13 14h1M15 14h1M17 14h2M22 14h1M24 14h1M26 14h2M31 14h1M33 14h1M35 14h2M13 15h1M15 15h1M17 15h2M22 15h6M31 15h1M33 15h1M35 15h2M13 16h6M31 16h6" />
</svg>