<svg xmlns="http://www.w3.org/2000/svg" viewBox="0 -0.5 54 18" shape-rendering="crispEdges">
<metadata>Made with Pixels to Svg https://codepen.io/shshaw/pen/XbxvNj</metadata>
<path stroke="#a9f2ff" d="M0 0h54M0 1h54M0 2h54M0 3h34M39 3h15M0 4h33M40 4h14M0 5h27M42 5h12M0 6h22M46 6h8M0 7h17M49 7h5M0 8h13M51 8h3M0 9h9M2 10h4M2 11h3M2 12h1" />
<path stroke="#009d2b" d="M34 3h5M33 4h7M32 5h9M32 6h9M33 7h3M37 7h2M35 8h1" />
<path stroke="#7deafd" d="M27 5h3M41 5h1M25 6h1M42 6h4M17 7h3M46 7h3M13 8h4M49 8h2M9 9h3M51 9h2M6 10h1M5 11h1M3 12h2M2 13h1" />
<path stroke="#7feafd" d="M30 5h2M12 9h1M7 10h2M0 14h1" />
<path stroke="#80ebfe" d="M22 6h1M24 6h1M26 6h1M53 9h1M1 13h1" />
<path stroke="#84ebfe" d="M23 6h1" />
<path stroke="#b2f19f" d="M27 6h1M43 7h1M45 7h1M21 8h1M44 8h1M46 8h1M13 9h1M10 10h1" />
<path stroke="#b1f0a1" d="M28 6h1M41 6h1M41 7h1M18 8h1M20 8h1M17 9h2M9 10h1M52 10h1M10 11h2M15 11h1M52 11h2M8 12h1M10 12h1M2 14h1" />
<path stroke="#aff0a6" d="M29 6h2" />
<path stroke="#aff0a7" d="M31 6h1" />
<path stroke="#88ecfd" d="M20 7h1" />
<path stroke="#8decf5" d="M21 7h1" />
<path stroke="#b1f09f" d="M22 7h3M26 8h1M45 8h1M47 8h1M11 10h1M13 10h4M7 11h1M12 11h2M11 12h1M52 12h2M4 13h2M3 14h1M5 14h1M2 15h2" />
<path stroke="#aef0a8" d="M25 7h1" />
<path stroke="#aef0a5" d="M26 7h1" />
<path stroke="#b2f19e" d="M27 7h1M40 7h1M44 7h1M17 8h1M22 8h3M42 8h2M48 8h1M14 9h3M19 9h1M45 9h6M48 10h4M6 11h1M49 11h3M5 12h3M3 13h1M1 14h1M4 14h1M0 15h2M0 16h2" />
<path stroke="#aff09f" d="M28 7h1M41 8h1" />
<path stroke="#aff0a3" d="M29 7h4M39 7h1M19 8h1M8 11h2" />
<path stroke="#ad6100" d="M36 7h1M36 8h1M35 9h2M35 10h2M34 11h4M33 12h6" />
<path stroke="#aff0a1" d="M42 7h1M14 11h1M9 12h1" />
<path stroke="#b1f0a2" d="M25 8h1M53 10h1" />
<path stroke="#b0f09b" d="M27 8h1M42 9h1M8 13h1" />
<path stroke="#aef09f" d="M28 8h1" />
<path stroke="#aef0a1" d="M29 8h1" />
<path stroke="#adf0a0" d="M30 8h1" />
<path stroke="#a7ee9a" d="M31 8h1" />
<path stroke="#a1ed96" d="M32 8h1" />
<path stroke="#a9ef9b" d="M33 8h1M32 9h1" />
<path stroke="#adf09d" d="M34 8h1" />
<path stroke="#a8ef99" d="M37 8h1" />
<path stroke="#a2ed96" d="M38 8h1" />
<path stroke="#a5ee9c" d="M39 8h1" />
<path stroke="#acef9b" d="M40 8h1" />
<path stroke="#b2f09d" d="M20 9h1M43 9h1M47 10h1M51 12h1" />
<path stroke="#b1f09d" d="M21 9h5M18 10h2M46 10h1M16 11h1M7 13h1M2 16h1M0 17h1" />
<path stroke="#b0f09a" d="M26 9h1M21 10h1" />
<path stroke="#abef94" d="M27 9h1M27 10h1M33 10h1M24 11h1M41 11h2M20 12h3M20 13h3M51 13h1M8 14h1M18 14h3M50 14h1M52 14h1M5 16h1" />
<path stroke="#adf09c" d="M28 9h1" />
<path stroke="#acef9c" d="M29 9h1" />
<path stroke="#a8ef9b" d="M30 9h1" />
<path stroke="#a4ee99" d="M31 9h1" />
<path stroke="#acef98" d="M33 9h1M10 13h2M29 13h1" />
<path stroke="#aff099" d="M34 9h1M37 10h1M17 11h1M16 13h1" />
<path stroke="#aff096" d="M37 9h1" />
<path stroke="#acef97" d="M38 9h1M17 13h2M15 14h2M2 17h1" />
<path stroke="#a8ef95" d="M39 9h1" />
<path stroke="#a7ee96" d="M40 9h1" />
<path stroke="#aaef94" d="M41 9h1M27 11h1M28 14h1M51 15h1" />
<path stroke="#b0f09e" d="M44 9h1" />
<path stroke="#a6f1ff" d="M0 10h1M0 11h1M0 12h2M0 13h1" />
<path stroke="#a8f1ff" d="M1 10h1M1 11h1" />
<path stroke="#b2f1a0" d="M12 10h1" />
<path stroke="#b1f09e" d="M17 10h1M12 12h1M6 13h1M4 15h1" />
<path stroke="#b1f09c" d="M20 10h1" />
<path stroke="#adef97" d="M22 10h1M42 10h1M20 11h1M32 11h1M18 12h1" />
<path stroke="#acef96" d="M23 10h2M26 10h1M41 10h1M43 10h1M21 11h2M19 12h1M50 12h1M19 13h1M30 13h1M17 14h1M3 17h1" />
<path stroke="#aff097" d="M25 10h1" />
<path stroke="#adf09a" d="M28 10h1M13 13h2" />
<path stroke="#a9ef9a" d="M29 10h1" />
<path stroke="#a7ee99" d="M30 10h1" />
<path stroke="#a8ef9a" d="M31 10h1" />
<path stroke="#acef99" d="M32 10h1M31 11h1M30 12h1" />
<path stroke="#aaef8b" d="M34 10h1" />
<path stroke="#a8ee8f" d="M38 10h1M43 13h1M24 14h1M8 16h1M50 16h1M7 17h1" />
<path stroke="#a9ee92" d="M39 10h1M44 10h1M44 11h1M24 12h1M27 12h1M9 15h1M11 15h1" />
<path stroke="#a7ee94" d="M40 10h1" />
<path stroke="#a9ee90" d="M45 10h1M40 11h1M43 12h1M24 13h1M44 13h1M47 14h1M20 15h2" />
<path stroke="#aff098" d="M18 11h1" />
<path stroke="#adf098" d="M19 11h1M9 13h1M3 16h1" />
<path stroke="#acef95" d="M23 11h1M25 11h1M50 13h1" />
<path stroke="#aaef93" d="M26 11h1M23 12h1M48 12h2M53 13h1M21 14h1M5 15h1M4 17h1" />
<path stroke="#a9ef99" d="M28 11h1M29 12h1" />
<path stroke="#a8ef98" d="M29 11h1" />
<path stroke="#abef9a" d="M30 11h1" />
<path stroke="#a9ee89" d="M33 11h1" />
<path stroke="#a6ed87" d="M38 11h1" />
<path stroke="#a7ee89" d="M39 11h1M34 14h1" />
<path stroke="#aaef92" d="M43 11h1M45 11h3M47 12h1M23 13h1M45 13h1M47 13h1M49 13h1M7 14h1M49 14h1M6 15h3M18 15h1M50 15h1" />
<path stroke="#a9ee8f" d="M48 11h1M46 14h1M22 15h1M49 15h1" />
<path stroke="#aef09c" d="M13 12h3" />
<path stroke="#aef09a" d="M16 12h1M15 13h1" />
<path stroke="#adf099" d="M17 12h1M12 13h1" />
<path stroke="#a9ee91" d="M25 12h1M42 12h1M44 12h1M27 13h1M48 14h1M53 14h1M10 15h1M12 15h1M16 15h1M19 15h1M28 15h1M6 16h1M5 17h2" />
<path stroke="#a8ee90" d="M26 12h1M41 12h1M27 14h1M14 15h1M7 16h1" />
<path stroke="#a9ef98" d="M28 12h1" />
<path stroke="#abef96" d="M31 12h1M29 14h1" />
<path stroke="#aaef8d" d="M32 12h1" />
<path stroke="#a7ee8a" d="M39 12h1" />
<path stroke="#a6ee8e" d="M40 12h1" />
<path stroke="#aaef91" d="M45 12h2M22 14h1M17 15h1" />
<path stroke="#a6ee8f" d="M25 13h1M15 15h1M53 15h1" />
<path stroke="#a7ee8c" d="M26 13h1M40 13h1M44 14h1M48 15h1M11 16h2M17 16h1M52 16h1" />
<path stroke="#a8ef97" d="M28 13h1" />
<path stroke="#aaef8f" d="M31 13h1" />
<path stroke="#a8ed7e" d="M32 13h1M30 15h1" />
<path stroke="#a5ed7c" d="M33 13h1" />
<path stroke="#a5ee8c" d="M34 13h2M39 13h1M41 13h1M24 15h1M27 15h1M20 16h1" />
<path stroke="#a5ee8b" d="M36 13h3M36 14h2M42 14h2M14 16h1M22 16h1M53 16h1M8 17h1" />
<path stroke="#a7ee8d" d="M42 13h1M26 14h1M23 15h1M9 16h1M13 16h1M18 16h2M51 16h1" />
<path stroke="#abef92" d="M46 13h1M48 13h1" />
<path stroke="#abef97" d="M52 13h1" />
<path stroke="#a7ee91" d="M6 14h1M52 15h1" />
<path stroke="#abef95" d="M9 14h6M51 14h1M4 16h1" />
<path stroke="#aaef90" d="M23 14h1M13 15h1" />
<path stroke="#a7ee8b" d="M25 14h1M35 14h1" />
<path stroke="#aaef8e" d="M30 14h1" />
<path stroke="#a7ee80" d="M31 14h1" />
<path stroke="#a4ed7a" d="M32 14h1" />
<path stroke="#a4ed83" d="M33 14h1" />
<path stroke="#a4ed8b" d="M38 14h1" />
<path stroke="#a6ee8a" d="M39 14h3M25 15h1M47 15h1M23 16h1" />
<path stroke="#a8ee8d" d="M45 14h1M10 16h1M1 17h1" />
<path stroke="#a5ed87" d="M26 15h1M33 15h2M28 16h1M45 16h1M47 16h1M10 17h1" />
<path stroke="#a9ee8e" d="M29 15h1" />
<path stroke="#a3ec7d" d="M31 15h1" />
<path stroke="#a3ec7f" d="M32 15h1" />
<path stroke="#a3ed87" d="M35 15h1M38 15h1M25 16h2M42 16h3M11 17h2M20 17h1M46 17h1M52 17h1" />
<path stroke="#a3ed86" d="M36 15h1M41 16h1M14 17h1M17 17h1M47 17h1" />
<path stroke="#a1ec84" d="M37 15h1M32 16h2M35 16h2M40 16h1M22 17h1M53 17h1" />
<path stroke="#a3ed88" d="M39 15h2M27 16h1" />
<path stroke="#a4ed88" d="M41 15h2M24 16h1M46 16h1M48 16h1M19 17h1M49 17h2" />
<path stroke="#a4ed8a" d="M43 15h4M15 16h2M21 16h1M9 17h1M18 17h1" />
<path stroke="#a4ed84" d="M29 16h1" />
<path stroke="#a2ed82" d="M30 16h1" />
<path stroke="#a1ec82" d="M31 16h1" />
<path stroke="#a2ed87" d="M34 16h1M21 17h1" />
<path stroke="#a0ec82" d="M37 16h1M25 17h2M34 17h3M43 17h1" />
<path stroke="#9eeb7f" d="M38 16h1M32 17h1M37 17h1" />
<path stroke="#9fec81" d="M39 16h1M33 17h1M42 17h1" />
<path stroke="#a5ee8d" d="M49 16h1" />
<path stroke="#a1ec85" d="M13 17h1M15 17h2M44 17h2M48 17h1" />
<path stroke="#a0ec85" d="M23 17h1" />
<path stroke="#a0ec84" d="M24 17h1" />
<path stroke="#9eeb80" d="M27 17h1" />
<path stroke="#a1ec83" d="M28 17h1" />
<path stroke="#a0ec81" d="M29 17h1" />
<path stroke="#9eeb7e" d="M30 17h1" />
<path stroke="#9eeb7d" d="M31 17h1" />
<path stroke="#9aeb7d" d="M38 17h1M41 17h1" />
<path stroke="#9aeb7c" d="M39 17h1" />
<path stroke="#98ea7a" d="M40 17h1" />
<path stroke="#a3ed8a" d="M51 17h1" />
</svg>