<svg xmlns="http://www.w3.org/2000/svg" viewBox="0 -0.5 75 26" shape-rendering="crispEdges">
<metadata>Made with Pixels to Svg https://codepen.io/shshaw/pen/XbxvNj</metadata>
<path stroke="#fffbdd" d="M0 0h75M0 1h75M0 2h75M0 3h75M0 4h21M36 4h3M54 4h21M0 5h7M13 5h7M37 5h1M55 5h7M68 5h7M0 6h5M15 6h5M37 6h1M55 6h5M70 6h5M0 7h4M16 7h4M37 7h1M55 7h4M71 7h4M0 8h3M17 8h3M37 8h1M55 8h3M72 8h3M0 9h3M17 9h3M37 9h1M55 9h3M72 9h3M0 10h2M18 10h2M37 10h1M55 10h2M73 10h2M0 11h2M18 11h2M37 11h1M55 11h2M73 11h2M0 12h2M18 12h2M37 12h1M55 12h2M73 12h2M0 13h2M18 13h2M37 13h1M55 13h2M73 13h2M0 14h2M18 14h2M37 14h1M55 14h2M73 14h2M0 15h2M18 15h2M37 15h1M55 15h2M73 15h2M0 16h3M17 16h3M37 16h1M55 16h3M72 16h3M0 17h3M17 17h3M37 17h1M55 17h3M72 17h3M0 18h4M16 18h4M37 18h1M55 18h4M71 18h4M0 19h5M15 19h5M37 19h1M55 19h5M70 19h5M0 20h7M13 20h7M37 20h1M55 20h7M68 20h7M0 21h21M36 21h3M54 21h21M0 22h75M0 23h75M0 24h75M0 25h75" />
<path stroke="#ffd82a" d="M21 4h15M20 5h17M20 6h17M20 7h17M20 8h17M20 9h17M20 10h17M20 11h17M20 12h17M20 13h17M20 14h9M30 14h2M35 14h2M20 15h9M30 15h1M32 15h3M36 15h1M20 16h9M30 16h1M32 16h5M20 17h9M30 17h2M35 17h2M20 18h9M30 18h5M36 18h1M20 19h6M27 19h2M30 19h1M32 19h3M36 19h1M20 20h7M29 20h3M35 20h2M21 21h15" />
<path stroke="#0087d6" d="M39 4h15M38 5h17M38 6h17M38 7h17M38 8h17M38 9h17M38 10h17M38 11h17M38 12h17M38 13h17M38 14h5M48 14h2M53 14h2M38 15h7M46 15h3M50 15h3M54 15h1M38 16h7M46 16h3M50 16h5M38 17h7M46 17h4M53 17h2M38 18h7M46 18h7M54 18h1M38 19h7M46 19h3M50 19h3M54 19h1M38 20h7M46 20h4M53 20h2M39 21h15" />
<path stroke="#0b0b0b" d="M7 5h6M62 5h6M5 6h10M60 6h10M4 7h12M59 7h12M3 8h6M11 8h6M58 8h4M63 8h5M69 8h3M3 9h6M11 9h6M58 9h3M63 9h4M69 9h3M2 10h6M12 10h6M57 10h4M64 10h3M69 10h4M2 11h6M12 11h6M57 11h4M65 11h2M69 11h4M2 12h5M13 12h5M57 12h4M66 12h2M69 12h4M2 13h5M13 13h5M57 13h4M63 13h1M67 13h6M2 14h4M14 14h4M29 14h1M32 14h3M57 14h4M63 14h2M68 14h5M2 15h4M14 15h4M29 15h1M31 15h1M35 15h1M57 15h4M63 15h3M69 15h4M3 16h2M15 16h2M29 16h1M31 16h1M58 16h3M63 16h4M69 16h3M3 17h14M29 17h1M32 17h3M58 17h4M63 17h4M70 17h2M4 18h12M29 18h1M35 18h1M59 18h9M5 19h10M26 19h1M29 19h1M31 19h1M35 19h1M60 19h9M7 20h6M27 20h2M32 20h3M62 20h6" />
<path stroke="#ffffff" d="M9 8h2M62 8h1M68 8h1M9 9h2M61 9h2M67 9h2M8 10h4M61 10h3M67 10h2M8 11h4M61 11h4M67 11h2M7 12h6M61 12h5M68 12h1M7 13h6M61 13h2M64 13h3M6 14h8M43 14h5M50 14h3M61 14h2M65 14h3M6 15h8M45 15h1M49 15h1M53 15h1M61 15h2M66 15h3M5 16h10M45 16h1M49 16h1M61 16h2M67 16h2M45 17h1M50 17h3M62 17h1M67 17h3M45 18h1M53 18h1M68 18h3M45 19h1M49 19h1M53 19h1M69 19h1M45 20h1M50 20h3" />
</svg>