<svg xmlns="http://www.w3.org/2000/svg" viewBox="0 -0.5 161 51" shape-rendering="crispEdges">
<metadata>Made with Pixels to Svg https://codepen.io/shshaw/pen/XbxvNj</metadata>
<path stroke="#ffffff" d="M0 0h161M0 1h161M0 2h161M0 3h161M0 4h161M0 5h67M70 5h3M78 5h6M85 5h5M93 5h47M148 5h13M0 6h62M65 6h2M68 6h2M71 6h7M79 6h4M84 6h1M86 6h3M90 6h2M93 6h3M99 6h41M148 6h13M0 7h61M62 7h5M68 7h3M72 7h1M77 7h2M80 7h2M83 7h3M87 7h1M89 7h3M93 7h6M100 7h40M148 7h13M0 8h61M62 8h1M66 8h2M69 8h2M72 8h1M74 8h3M78 8h2M81 8h1M83 8h3M87 8h1M89 8h2M92 8h3M98 8h1M100 8h40M148 8h13M0 9h61M62 9h1M64 9h2M67 9h2M72 9h1M74 9h4M79 9h3M83 9h3M87 9h1M91 9h3M95 9h2M98 9h1M100 9h40M148 9h13M0 10h63M64 10h3M68 10h5M74 10h5M80 10h2M83 10h3M87 10h6M94 10h3M98 10h42M148 10h13M0 11h64M65 11h2M68 11h1M71 11h3M75 11h3M80 11h2M83 11h3M87 11h2M92 11h1M94 11h2M97 11h43M148 11h13M0 12h65M68 12h1M70 12h1M72 12h3M76 12h1M78 12h5M86 12h2M89 12h2M92 12h1M96 12h2M101 12h39M148 12h13M0 13h60M63 13h7M71 13h1M73 13h3M78 13h1M82 13h5M88 13h3M92 13h5M98 13h2M101 13h31M156 13h5M0 14h31M33 14h27M61 14h2M64 14h2M69 14h2M72 14h1M74 14h8M84 14h2M87 14h3M91 14h2M95 14h1M97 14h3M101 14h31M156 14h5M0 15h6M14 15h6M22 15h5M29 15h1M34 15h3M45 15h15M61 15h3M65 15h1M67 15h2M70 15h2M73 15h1M75 15h2M80 15h4M85 15h1M87 15h2M90 15h2M95 15h1M97 15h2M100 15h32M156 15h5M0 16h5M15 16h1M18 16h1M23 16h3M34 16h2M46 16h15M62 16h2M65 16h1M67 16h3M71 16h2M74 16h2M77 16h4M82 16h2M85 16h2M89 16h2M92 16h1M94 16h2M99 16h33M156 16h5M0 17h5M23 17h3M34 17h2M46 17h16M65 17h2M68 17h3M72 17h3M76 17h2M79 17h1M81 17h1M83 17h1M85 17h5M91 17h1M93 17h39M156 17h5M0 18h5M23 18h3M34 18h2M46 18h22M69 18h2M72 18h2M75 18h2M78 18h1M80 18h6M87 18h2M90 18h1M92 18h3M99 18h1M101 18h31M156 18h5M0 19h5M9 19h2M23 19h3M34 19h2M40 19h2M46 19h16M67 19h2M71 19h2M74 19h5M80 19h2M83 19h2M86 19h1M88 19h2M91 19h3M95 19h3M99 19h1M101 19h31M156 19h5M0 20h5M9 20h2M23 20h3M34 20h2M40 20h2M46 20h15M62 20h5M68 20h6M75 20h2M78 20h3M82 20h1M84 20h4M89 20h4M94 20h4M99 20h1M101 20h31M156 20h5M0 21h5M9 21h2M23 21h3M34 21h2M40 21h2M46 21h14M61 21h6M68 21h2M73 21h3M77 21h1M81 21h3M85 21h4M90 21h2M93 21h5M99 21h1M101 21h17M119 21h21M148 21h13M0 22h5M9 22h2M39 22h3M46 22h15M62 22h5M68 22h1M70 22h5M76 22h1M79 22h2M84 22h1M86 22h1M88 22h2M91 22h1M94 22h3M98 22h2M101 22h14M119 22h21M148 22h13M0 23h5M9 23h2M38 23h4M46 23h16M67 23h2M70 23h2M73 23h1M75 23h2M78 23h1M82 23h1M85 23h3M89 23h1M91 23h3M95 23h1M97 23h2M100 23h12M115 23h1M117 23h8M127 23h13M148 23h13M0 24h6M8 24h3M38 24h4M46 24h22M69 24h2M72 24h3M76 24h1M79 24h1M81 24h1M83 24h1M85 24h1M88 24h2M91 24h1M93 24h1M96 24h2M99 24h10M112 24h3M116 24h8M126 24h14M148 24h13M0 25h11M15 25h1M26 25h1M37 25h5M46 25h17M64 25h4M69 25h3M73 25h3M77 25h1M80 25h1M83 25h1M85 25h3M89 25h3M93 25h4M98 25h10M109 25h5M115 25h8M124 25h1M126 25h14M148 25h13M0 26h11M15 26h4M23 26h7M34 26h8M46 26h16M63 26h2M67 26h1M69 26h1M71 26h2M75 26h1M77 26h1M79 26h1M81 26h1M84 26h1M86 26h3M90 26h2M93 26h20M114 26h7M123 26h1M125 26h15M148 26h13M0 27h11M15 27h4M23 27h7M34 27h8M46 27h15M62 27h2M65 27h1M67 27h3M71 27h1M73 27h3M78 27h1M82 27h1M84 27h2M87 27h1M89 27h2M92 27h2M99 27h13M113 27h7M122 27h2M125 27h15M148 27h13M0 28h2M3 28h1M5 28h6M15 28h4M23 28h7M34 28h8M46 28h14M61 28h2M64 28h3M69 28h1M71 28h2M74 28h1M76 28h1M80 28h2M84 28h1M86 28h5M92 28h1M94 28h5M100 28h11M113 28h6M120 28h3M124 28h16M148 28h13M0 29h1M6 29h5M15 29h4M23 29h7M34 29h8M46 29h14M61 29h1M63 29h5M69 29h2M72 29h4M77 29h3M83 29h1M85 29h3M91 29h2M94 29h6M101 29h10M112 29h6M119 29h4M124 29h37M7 30h4M15 30h4M23 30h7M34 30h8M46 30h14M61 30h1M63 30h4M68 30h4M73 30h4M78 30h1M80 30h3M84 30h2M87 30h6M94 30h5M100 30h10M111 30h5M118 30h4M123 30h5M130 30h7M138 30h7M146 30h15M0 31h1M6 31h5M15 31h4M23 31h7M34 31h8M46 31h14M61 31h1M63 31h3M67 31h3M71 31h2M74 31h1M76 31h2M79 31h2M82 31h5M88 31h2M92 31h2M99 31h11M111 31h4M117 31h5M123 31h4M128 31h1M130 31h6M138 31h6M145 31h16M0 32h1M6 32h5M15 32h4M23 32h7M34 32h8M46 32h14M61 32h1M66 32h3M70 32h1M72 32h2M75 32h6M82 32h1M84 32h2M87 32h2M90 32h2M93 32h16M110 32h3M115 32h6M122 32h4M127 32h2M130 32h5M136 32h1M138 32h5M144 32h17M7 33h4M15 33h4M23 33h7M34 33h8M46 33h22M69 33h1M71 33h5M77 33h1M79 33h1M81 33h1M83 33h2M86 33h3M90 33h3M94 33h2M99 33h11M113 33h8M122 33h3M126 33h3M130 33h4M136 33h1M138 33h4M144 33h17M0 34h1M6 34h5M15 34h4M23 34h7M34 34h8M46 34h16M65 34h2M68 34h1M70 34h2M74 34h2M77 34h2M80 34h4M85 34h2M88 34h2M91 34h3M95 34h1M97 34h2M100 34h20M121 34h3M125 34h4M130 34h3M135 34h2M138 34h3M143 34h18M0 35h2M3 35h1M5 35h6M15 35h4M23 35h7M34 35h8M46 35h15M62 35h2M65 35h1M67 35h1M69 35h2M72 35h2M75 35h1M77 35h4M84 35h2M87 35h1M89 35h2M92 35h2M95 35h1M97 35h3M101 35h19M121 35h2M124 35h5M130 35h3M134 35h3M138 35h2M142 35h19M0 36h12M14 36h6M22 36h9M33 36h10M45 36h15M61 36h3M65 36h1M68 36h2M71 36h3M75 36h2M79 36h8M88 36h1M90 36h2M95 36h2M98 36h2M101 36h19M123 36h5M129 36h3M133 36h4M138 36h1M141 36h20M0 37h60M61 37h2M64 37h5M70 37h3M74 37h5M82 37h1M85 37h3M89 37h1M91 37h7M101 37h19M122 37h6M129 37h2M132 37h5M140 37h21M0 38h60M63 38h2M68 38h1M70 38h2M73 38h2M78 38h5M84 38h1M86 38h3M90 38h1M92 38h1M96 38h32M129 38h1M131 38h30M0 39h64M65 39h2M68 39h1M72 39h2M75 39h3M79 39h2M83 39h3M87 39h3M92 39h1M94 39h2M97 39h32M130 39h31M0 40h63M64 40h3M68 40h6M75 40h3M79 40h2M82 40h5M88 40h5M94 40h3M98 40h63M0 41h61M62 41h1M64 41h2M67 41h3M73 41h1M75 41h3M79 41h3M83 41h4M88 41h1M92 41h2M95 41h2M98 41h1M100 41h61M0 42h61M62 42h1M66 42h3M70 42h2M73 42h1M75 42h3M79 42h1M81 42h2M84 42h3M88 42h1M90 42h2M93 42h2M98 42h1M100 42h61M0 43h61M62 43h6M69 43h3M73 43h1M75 43h3M79 43h2M82 43h2M88 43h1M90 43h3M94 43h5M100 43h61M0 44h62M65 44h3M69 44h2M72 44h3M76 44h1M78 44h4M83 44h7M91 44h2M94 44h2M99 44h62M0 45h68M71 45h5M77 45h6M88 45h3M94 45h67M0 46h161M0 47h161M0 48h161M0 49h161M0 50h161" />
<path stroke="#df565c" d="M67 5h3M73 5h5M84 5h1M90 5h3M62 6h3M67 6h1M70 6h1M78 6h1M83 6h1M85 6h1M89 6h1M92 6h1M97 6h2M61 7h1M67 7h1M71 7h1M73 7h4M79 7h1M82 7h1M86 7h1M88 7h1M92 7h1M99 7h1M61 8h1M63 8h3M68 8h1M71 8h1M73 8h1M77 8h1M80 8h1M82 8h1M86 8h1M88 8h1M91 8h1M95 8h3M99 8h1M61 9h1M63 9h1M66 9h1M69 9h3M73 9h1M78 9h1M82 9h1M86 9h1M88 9h3M94 9h1M97 9h1M99 9h1M63 10h1M67 10h1M73 10h1M79 10h1M82 10h1M86 10h1M93 10h1M97 10h1M64 11h1M67 11h1M69 11h2M74 11h1M78 11h2M82 11h1M86 11h1M89 11h3M93 11h1M96 11h1M65 12h3M69 12h1M71 12h1M75 12h1M77 12h1M83 12h3M88 12h1M91 12h1M93 12h3M98 12h3M60 13h3M70 13h1M72 13h1M76 13h2M79 13h3M87 13h1M91 13h1M97 13h1M100 13h1M60 14h1M63 14h1M66 14h3M71 14h1M73 14h1M82 14h2M90 14h1M93 14h2M96 14h1M100 14h1M60 15h1M64 15h1M66 15h1M69 15h1M72 15h1M74 15h1M77 15h3M84 15h1M86 15h1M89 15h1M92 15h1M94 15h1M96 15h1M99 15h1M61 16h1M64 16h1M66 16h1M70 16h1M73 16h1M76 16h1M81 16h1M84 16h1M87 16h2M91 16h1M93 16h1M96 16h3M62 17h3M67 17h1M71 17h1M75 17h1M78 17h1M80 17h1M82 17h1M84 17h1M90 17h1M92 17h1M68 18h1M71 18h1M74 18h1M77 18h1M79 18h1M86 18h1M89 18h1M91 18h1M95 18h4M100 18h1M62 19h5M69 19h2M73 19h1M79 19h1M82 19h1M85 19h1M87 19h1M90 19h1M94 19h1M98 19h1M100 19h1M61 20h1M67 20h1M74 20h1M77 20h1M81 20h1M83 20h1M88 20h1M93 20h1M98 20h1M100 20h1M60 21h1M67 21h1M70 21h1M72 21h1M76 21h1M78 21h3M84 21h1M89 21h1M92 21h1M98 21h1M100 21h1M61 22h1M67 22h1M69 22h1M75 22h1M77 22h2M81 22h3M85 22h1M87 22h1M90 22h1M92 22h2M97 22h1M100 22h1M62 23h5M69 23h1M72 23h1M74 23h1M77 23h1M79 23h3M83 23h2M88 23h1M90 23h1M94 23h1M96 23h1M99 23h1M68 24h1M71 24h1M75 24h1M77 24h2M80 24h1M82 24h1M84 24h1M86 24h2M90 24h1M92 24h1M94 24h2M98 24h1M63 25h1M68 25h1M72 25h1M76 25h1M78 25h2M81 25h2M84 25h1M88 25h1M92 25h1M97 25h1M62 26h1M65 26h2M68 26h1M70 26h1M73 26h2M76 26h1M78 26h1M80 26h1M82 26h2M85 26h1M89 26h1M92 26h1M61 27h1M64 27h1M66 27h1M70 27h1M72 27h1M76 27h2M79 27h3M83 27h1M86 27h1M88 27h1M91 27h1M94 27h5M60 28h1M63 28h1M67 28h2M70 28h1M73 28h1M75 28h1M77 28h3M82 28h2M85 28h1M91 28h1M93 28h1M99 28h1M60 29h1M62 29h1M68 29h1M71 29h1M76 29h1M80 29h3M84 29h1M88 29h3M93 29h1M100 29h1M60 30h1M62 30h1M67 30h1M72 30h1M77 30h1M79 30h1M83 30h1M86 30h1M93 30h1M99 30h1M60 31h1M62 31h1M66 31h1M70 31h1M73 31h1M75 31h1M78 31h1M81 31h1M87 31h1M90 31h2M94 31h5M60 32h1M62 32h4M69 32h1M71 32h1M74 32h1M81 32h1M83 32h1M86 32h1M89 32h1M92 32h1M68 33h1M70 33h1M76 33h1M78 33h1M80 33h1M82 33h1M85 33h1M89 33h1M93 33h1M96 33h3M62 34h3M67 34h1M69 34h1M72 34h2M76 34h1M79 34h1M84 34h1M87 34h1M90 34h1M94 34h1M96 34h1M99 34h1M61 35h1M64 35h1M66 35h1M68 35h1M71 35h1M74 35h1M76 35h1M81 35h3M86 35h1M88 35h1M91 35h1M94 35h1M96 35h1M100 35h1M60 36h1M64 36h1M66 36h2M70 36h1M74 36h1M77 36h2M87 36h1M89 36h1M92 36h3M97 36h1M100 36h1M60 37h1M63 37h1M69 37h1M73 37h1M79 37h3M83 37h2M88 37h1M90 37h1M98 37h3M60 38h3M65 38h3M69 38h1M72 38h1M75 38h3M83 38h1M85 38h1M89 38h1M91 38h1M93 38h3M64 39h1M67 39h1M69 39h3M74 39h1M78 39h1M81 39h2M86 39h1M90 39h2M93 39h1M96 39h1M63 40h1M67 40h1M74 40h1M78 40h1M81 40h1M87 40h1M93 40h1M97 40h1M61 41h1M63 41h1M66 41h1M70 41h3M74 41h1M78 41h1M82 41h1M87 41h1M89 41h3M94 41h1M97 41h1M99 41h1M61 42h1M63 42h3M69 42h1M72 42h1M74 42h1M78 42h1M80 42h1M83 42h1M87 42h1M89 42h1M92 42h1M95 42h3M99 42h1M61 43h1M68 43h1M72 43h1M74 43h1M78 43h1M81 43h1M84 43h4M89 43h1M93 43h1M99 43h1M62 44h3M68 44h1M71 44h1M75 44h1M77 44h1M82 44h1M90 44h1M93 44h1M96 44h3M68 45h3M76 45h1M83 45h5M91 45h3" />
<path stroke="#dd64e3" d="M140 5h8M140 6h8M140 7h8M140 8h8M140 9h8M140 10h8M140 11h8M140 12h8M132 13h8M148 13h8M132 14h8M148 14h4M153 14h3M132 15h8M148 15h8M132 16h8M148 16h8M132 17h8M148 17h8M132 18h8M148 18h8M132 19h8M148 19h8M132 20h8M148 20h8M140 21h8M140 22h8M140 23h8M140 24h8M140 25h8M140 26h8M140 27h8M140 28h8" />
<path stroke="#e46b6f" d="M96 6h1" />
<path stroke="#fff789" d="M140 13h8M140 14h8M140 15h8M140 16h8M140 17h8M140 18h8M140 19h8M140 20h8" />
<path stroke="#747475" d="M31 14h2M6 15h8M20 15h2M27 15h2M30 15h1M33 15h1M37 15h8M5 16h1M14 16h1M16 16h2M19 16h1M22 16h1M26 16h1M29 16h2M33 16h1M36 16h1M45 16h1M5 17h1M14 17h2M18 17h2M22 17h1M26 17h1M29 17h2M33 17h1M36 17h1M45 17h1M5 18h1M8 18h4M14 18h2M18 18h2M22 18h1M26 18h1M29 18h2M33 18h1M36 18h1M39 18h4M45 18h1M5 19h1M8 19h1M11 19h1M14 19h2M18 19h2M22 19h1M26 19h1M29 19h2M33 19h1M36 19h1M39 19h1M42 19h1M45 19h1M5 20h1M8 20h1M11 20h1M14 20h2M18 20h2M22 20h1M26 20h1M29 20h2M33 20h1M36 20h1M39 20h1M42 20h1M45 20h1M5 21h1M8 21h1M11 21h1M14 21h2M18 21h2M22 21h1M26 21h1M29 21h2M33 21h1M36 21h1M39 21h1M42 21h1M45 21h1M5 22h1M8 22h1M11 22h1M14 22h2M18 22h2M22 22h5M29 22h2M33 22h6M42 22h1M45 22h1M5 23h1M8 23h1M11 23h1M14 23h2M26 23h1M37 23h1M42 23h1M45 23h1M6 24h2M11 24h1M14 24h2M26 24h1M37 24h1M42 24h1M45 24h1M11 25h1M14 25h1M16 25h4M22 25h4M27 25h4M33 25h4M42 25h1M45 25h1M11 26h1M14 26h1M19 26h1M22 26h1M30 26h1M33 26h1M42 26h1M45 26h1M11 27h1M14 27h1M19 27h1M22 27h1M30 27h1M33 27h1M42 27h1M45 27h1M2 28h1M4 28h1M11 28h1M14 28h1M19 28h1M22 28h1M30 28h1M33 28h1M42 28h1M45 28h1M1 29h1M3 29h1M5 29h1M11 29h1M14 29h1M19 29h1M22 29h1M30 29h1M33 29h1M42 29h1M45 29h1M0 30h1M6 30h1M11 30h1M14 30h1M19 30h1M22 30h1M30 30h1M33 30h1M42 30h1M45 30h1M1 31h1M3 31h1M5 31h1M11 31h1M14 31h1M19 31h1M22 31h1M30 31h1M33 31h1M42 31h1M45 31h1M1 32h1M3 32h1M5 32h1M11 32h1M14 32h1M19 32h1M22 32h1M30 32h1M33 32h1M42 32h1M45 32h1M0 33h1M6 33h1M11 33h1M14 33h1M19 33h1M22 33h1M30 33h1M33 33h1M42 33h1M45 33h1M1 34h1M3 34h1M5 34h1M11 34h1M14 34h1M19 34h1M22 34h1M30 34h1M33 34h1M42 34h1M45 34h1M2 35h1M4 35h1M11 35h1M14 35h1M19 35h1M22 35h1M30 35h1M33 35h1M42 35h1M45 35h1M12 36h2M20 36h2M31 36h2M43 36h2" />
<path stroke="#e16064" d="M86 14h1" />
<path stroke="#dd66e3" d="M152 14h1" />
<path stroke="#0b0b0b" d="M31 15h2M6 16h8M20 16h2M27 16h2M31 16h2M37 16h8M6 17h8M16 17h2M20 17h2M27 17h2M31 17h2M37 17h8M6 18h2M12 18h2M16 18h2M20 18h2M27 18h2M31 18h2M37 18h2M43 18h2M6 19h2M12 19h2M16 19h2M20 19h2M27 19h2M31 19h2M37 19h2M43 19h2M6 20h2M12 20h2M16 20h2M20 20h2M27 20h2M31 20h2M37 20h2M43 20h2M6 21h2M12 21h2M16 21h2M20 21h2M27 21h2M31 21h2M37 21h2M43 21h2M118 21h1M6 22h2M12 22h2M16 22h2M20 22h2M27 22h2M31 22h2M43 22h2M115 22h4M7 23h1M12 23h2M16 23h10M27 23h10M43 23h2M112 23h3M116 23h1M125 23h2M12 24h2M16 24h10M27 24h10M43 24h2M109 24h3M115 24h1M124 24h2M12 25h2M20 25h2M31 25h2M43 25h2M108 25h1M114 25h1M123 25h1M125 25h1M12 26h2M20 26h2M31 26h2M43 26h2M113 26h1M121 26h2M124 26h1M12 27h2M20 27h2M31 27h2M43 27h2M112 27h1M120 27h2M124 27h1M12 28h2M20 28h2M31 28h2M43 28h2M111 28h2M119 28h1M123 28h1M2 29h1M4 29h1M12 29h2M20 29h2M31 29h2M43 29h2M111 29h1M118 29h1M123 29h1M1 30h5M12 30h2M20 30h2M31 30h2M43 30h2M110 30h1M116 30h2M122 30h1M128 30h2M137 30h1M145 30h1M2 31h1M4 31h1M12 31h1M20 31h2M31 31h2M43 31h2M110 31h1M115 31h2M122 31h1M127 31h1M129 31h1M136 31h2M144 31h1M2 32h1M4 32h1M12 32h2M20 32h2M31 32h2M43 32h2M109 32h1M113 32h2M121 32h1M126 32h1M135 32h1M137 32h1M143 32h1M1 33h5M12 33h2M20 33h2M31 33h2M43 33h2M110 33h3M121 33h1M125 33h1M129 33h1M134 33h1M137 33h1M142 33h2M2 34h1M4 34h1M12 34h2M20 34h2M31 34h2M43 34h2M120 34h1M124 34h1M129 34h1M133 34h2M137 34h1M141 34h2M12 35h2M20 35h2M31 35h2M43 35h2M120 35h1M123 35h1M129 35h1M133 35h1M137 35h1M140 35h2M120 36h3M128 36h1M132 36h1M137 36h1M139 36h2M120 37h2M128 37h1M131 37h1M137 37h3M128 38h1M130 38h1M129 39h1" />
<path stroke="#fffeff" d="M93 15h1" />
<path stroke="#e1595f" d="M71 21h1" />
<path stroke="#0f0e0f" d="M6 23h1" />
<path stroke="#191919" d="M13 31h1" />
<path stroke="#1c1c1d" d="M129 32h1" />
<path stroke="#fbf8fa" d="M135 33h1" />
</svg>